<?xml version="1.0" encoding="utf-8"?>
<!-- Generator: Adobe Illustrator 24.1.2, SVG Export Plug-In . SVG Version: 6.00 Build 0)  -->
<svg version="1.1" id="Layer_1" xmlns="http://www.w3.org/2000/svg" xmlns:xlink="http://www.w3.org/1999/xlink" x="0px" y="0px"
	 viewBox="0 0 50 50" style="enable-background:new 0 0 50 50;" xml:space="preserve">
<style type="text/css">
	.st0{fill:none;stroke:#D0945C;stroke-width:2;stroke-linecap:round;stroke-linejoin:round;stroke-miterlimit:10;}
</style>
<path class="st0" d="M32,5.5C32,8,34,10,36.5,10C39,10,41,8,41,5.5C41,3,39,1,36.5,1C34,1,32,3,32,5.5z"/>
<path class="st0" d="M19.3,26.6l-4.1,5.9c0,0-6.8,0.5-9.2,0.6c-1.9,0.1-3,0.8-3,2S4,37,6.7,37.2c2.3,0.2,10,0.7,10,0.7c0,0,0,0,0,0
	c0.9,0,1.8-0.5,2.5-1.4l4-5.7"/>
<path class="st0" d="M34.8,31.5l-6.9-4.7l7-11.3c0.4-0.6,0.7-2.2,0.1-2.6l-3.9-2.6c-0.3-0.2-0.6-0.4-1-0.5L22.2,8
	c-0.6-0.1-1.2,0-1.8,0.3l-6.5,5c-1.1,0.9-2.1,2.1-1.4,3.1c0.5,0.7,2,0.3,2.8-0.2l6.8-3.6l4.5,1l-6,9c-1.4,2.4-1.8,4.3,0.6,6.4
	l8.6,5.7l-3.6,8.9c-1.4,3.3-1.1,4.9-0.2,5.3s2.3-0.1,4.2-3.6l5.5-10.4C36.3,33.6,35.9,32.2,34.8,31.5z"/>
<path class="st0" d="M33.1,19l1.7,4.2c0.3,0.7,1.1,1.4,1.9,1.5c0,0,5.5-0.1,7-0.2c1.6-0.1,3.4-0.4,3.4-1.5c0.1-1.6-1.4-1.7-2.8-1.8
	l-5.6-0.5l-3.3-7.5"/>
</svg>
